<svg width="14" height="14" viewBox="0 0 14 14" fill="none" xmlns="http://www.w3.org/2000/svg">
<path d="M5.95246 0.937715L6.64613 0.226013C6.93985 -0.0753378 7.4148 -0.0753378 7.70539 0.226013L13.7797 6.455C14.0734 6.75635 14.0734 7.24365 13.7797 7.54179L7.70539 13.774C7.41167 14.0753 6.93673 14.0753 6.64613 13.774L5.95246 13.0623C5.65562 12.7577 5.66187 12.2608 5.96496 11.9627L9.73016 8.28235H0.749916C0.334338 8.28235 0 7.93932 0 7.51294V6.48706C0 6.06068 0.334338 5.71766 0.749916 5.71766H9.73016L5.96496 2.03733C5.65874 1.73918 5.65249 1.24227 5.95246 0.937715Z" fill="white"/>
</svg>
